# File created by Blade
# Date/Time:  Fri Jan 16 17:18:57 2015
#---------------------------------------------------------
:version 1.10
:name HOM
:units
  mass 1.0
  length 1.000000
  angle deg
:documentation
     Acclaim Skeleton File
:root
   axis xyz
   order TX TY TZ RX RY RZ
   position 0.000000 0.000000 0.000000
   orientation 0 0 0
:bonedata
   begin
      id 1
      name Spine_dum
      direction 0.000000 1.000000 0.000000
      length 7.170412
      axis 0.0 0.0 0.0 xyz
   end
   begin
      id 2
      name LeftUpLeg_dum
      direction 1.000000 0.000000 0.000000
      length 4.318350
      axis 0.0 0.0 0.0 xyz
   end
   begin
      id 3
      name RightUpLeg_dum
      direction -1.000000 0.000000 0.000000
      length 4.318350
      axis 0.0 0.0 0.0 xyz
   end
   begin
      id 4
      name Spine
      direction 0.000000 1.000000 0.000000
      length 0.000000
      axis 0.0 0.0 0.0 xyz
      dof rx ry rz
   end
   begin
      id 5
      name Spine_dum1
      direction 0.000000 1.000000 0.000000
      length 14.276153
      axis 0.0 0.0 0.0 xyz
   end
   begin
      id 6
      name Spine_dum2
      direction 0.000000 1.000000 0.000000
      length 10.718243
      axis 0.0 0.0 0.0 xyz
   end
   begin
      id 7
      name Spine_dum3
      direction 0.000000 1.000000 0.000000
      length 10.718243
      axis 0.0 0.0 0.0 xyz
   end
   begin
      id 8
      name Head
      direction 0.000000 1.000000 0.000000
      length 4.527550
      axis 0.0 0.0 0.0 xyz
      dof rx ry rz
   end
   begin
      id 9
      name LeftShoulder
      direction 1.000000 0.000000 0.000000
      length 7.058872
      axis 0.0 0.0 -90.0 xyz
      dof rx ry rz
   end
   begin
      id 10
      name LeftArm
      direction 1.000000 0.000000 0.000000
      length 10.955525
      axis 0.0 0.0 -90.0 xyz
      dof rx ry rz
   end
   begin
      id 11
      name LeftForeArm
      direction 1.000000 0.000000 0.000000
      length 8.193716
      axis 0.0 0.0 -90.0 xyz
      dof ry rz rx
   end
   begin
      id 12
      name LeftHand
      direction 0.000000 0.000000 0.000000
      length 0.000000
      axis 0.0 0.0 -90.0 xyz
      dof rx ry rz
   end
   begin
      id 13
      name LeftHand_dum1
      direction 0.000000 0.000000 0.000000
      length 0.000000
      axis 0.0 0.0 -90.0 xyz
   end
   begin
      id 14
      name LeftHand_dum2
      direction 1.000000 0.000000 0.000000
      length 3.937000
      axis 0.0 0.0 -90.0 xyz
   end
   begin
      id 15
      name LeftHandThumb1
      direction 0.000000 0.000000 1.000000
      length 3.937000
      axis 0.0 0.0 -90.0 xyz
      dof rx rz ry
   end
   begin
      id 16
      name RightShoulder
      direction -1.000000 0.000000 0.000000
      length 7.058872
      axis 0.0 0.0 90.0 xyz
      dof rx ry rz
   end
   begin
      id 17
      name RightArm
      direction -1.000000 0.000000 0.000000
      length 10.955525
      axis 0.0 0.0 90.0 xyz
      dof rx ry rz
   end
   begin
      id 18
      name RightForeArm
      direction -1.000000 0.000000 0.000000
      length 8.193716
      axis 0.0 0.0 90.0 xyz
      dof ry rz rx
   end
   begin
      id 19
      name RightHand
      direction 0.000000 0.000000 0.000000
      length 0.000000
      axis 0.0 0.0 90.0 xyz
      dof rx ry rz
   end
   begin
      id 20
      name RightHand_dum1
      direction 0.000000 0.000000 0.000000
      length 0.000000
      axis 0.0 0.0 90.0 xyz
   end
   begin
      id 21
      name RightHand_dum2
      direction -1.000000 0.000000 0.000000
      length 3.937000
      axis 0.0 0.0 90.0 xyz
   end
   begin
      id 22
      name RightHandThumb1
      direction 0.000000 0.000000 1.000000
      length 3.937000
      axis 0.0 0.0 90.0 xyz
      dof rx rz ry
   end
   begin
      id 23
      name LeftUpLeg
      direction 0.000000 -1.000000 0.000000
      length 17.323638
      axis 0.0 0.0 0.0 xyz
      dof rx ry rz
   end
   begin
      id 24
      name LeftLeg
      direction 0.000000 -1.000000 0.000000
      length 16.270368
      axis 0.0 0.0 0.0 xyz
      dof rx ry rz
   end
   begin
      id 25
      name LeftFoot
      direction 0.000000 -0.258819 0.965926
      length 4.922846
      axis 15.0 0.0 0.0 xyz
      dof rx ry rz
   end
   begin
      id 26
      name LeftToeBase
      direction 0.000000 0.000000 1.000000
      length 2.952750
      axis 0.0 0.0 0.0 xyz
      dof rx ry rz
   end
   begin
      id 27
      name RightUpLeg
      direction 0.000000 -1.000000 0.000000
      length 17.323638
      axis 0.0 0.0 0.0 xyz
      dof rx ry rz
   end
   begin
      id 28
      name RightLeg
      direction 0.000000 -1.000000 0.000000
      length 16.270368
      axis 0.0 0.0 0.0 xyz
      dof rx ry rz
   end
   begin
      id 29
      name RightFoot
      direction 0.000000 -0.258819 0.965926
      length 4.922846
      axis 15.0 0.0 0.0 xyz
      dof rx ry rz
   end
   begin
      id 30
      name RightToeBase
      direction 0.000000 0.000000 1.000000
      length 2.952750
      axis 0.0 0.0 0.0 xyz
      dof rx ry rz
   end
:hierarchy
   begin
      root Spine_dum LeftUpLeg_dum RightUpLeg_dum
      Spine_dum Spine
      LeftUpLeg_dum LeftUpLeg
      RightUpLeg_dum RightUpLeg
      Spine Spine_dum1 Spine_dum2 Spine_dum3
      Spine_dum1 Head
      Spine_dum2 LeftShoulder
      Spine_dum3 RightShoulder
      LeftShoulder LeftArm
      LeftArm LeftForeArm
      LeftForeArm LeftHand
      LeftHand LeftHand_dum1 LeftHand_dum2
      LeftHand_dum1 LeftHandThumb1
      RightShoulder RightArm
      RightArm RightForeArm
      RightForeArm RightHand
      RightHand RightHand_dum1 RightHand_dum2
      RightHand_dum1 RightHandThumb1
      LeftUpLeg LeftLeg
      LeftLeg LeftFoot
      LeftFoot LeftToeBase
      RightUpLeg RightLeg
      RightLeg RightFoot
      RightFoot RightToeBase
   end

# File created by Blade
# Date/Time:  Fri Jan 16 17:19:08 2015
# Frame Rate: 120.000 fps
#------------------------------------------------------
:FULLY-SPECIFIED
:DEGREES
3129
root -5.220668 35.175542 -9.147599 0.688404 -5.533771 -6.612198
Spine -6.093576 -3.489482 6.827549
Head 10.740363 -7.815047 -5.353003
LeftShoulder -20.687941 12.977561 -13.097510
LeftArm 15.880320 -12.296233 -75.355863
LeftForeArm 16.125961 -0.000000 9.983496
LeftHand 0.251151 -0.000000 -4.838037
LeftHandThumb1 -26.253704 0.000000 33.147579
RightShoulder -11.037286 5.914004 -7.638018
RightArm -4.407399 -10.750900 30.050860
RightForeArm 53.009376 -0.000000 91.967502
RightHand 11.610844 -0.000000 -0.485692
RightHandThumb1 -24.326973 -0.000000 -32.862282
LeftUpLeg 11.042909 13.995497 7.005324
LeftLeg -9.722535 -0.000000 0.000000
LeftFoot -16.639477 29.006013 -7.789147
LeftToeBase 22.907376 -0.000000 -0.000000
RightUpLeg 7.347680 -4.275533 4.555181
RightLeg -4.801817 -0.000000 0.000000
RightFoot -5.028843 -27.930054 4.968281
RightToeBase 13.320092 -0.000000 -0.000000
3130
root -5.218496 35.175729 -9.149438 0.680558 -5.534409 -6.605402
Spine -6.074412 -3.480120 6.831958
Head 10.700727 -7.816724 -5.342993
LeftShoulder -20.678577 12.975938 -13.098415
LeftArm 15.876475 -12.331372 -75.367356
LeftForeArm 16.121105 -0.000000 10.003023
LeftHand 0.246952 -0.000000 -4.851767
LeftHandThumb1 -26.253704 0.000000 33.147579
RightShoulder -11.019797 5.848462 -7.589641
RightArm -4.254626 -10.959387 30.051301
RightForeArm 52.891313 0.000000 91.798336
RightHand 11.719733 -0.000000 0.163347
RightHandThumb1 -24.326973 -0.000000 -32.862282
LeftUpLeg 11.046311 14.007309 6.996232
LeftLeg -9.723459 -0.000000 0.000000
LeftFoot -16.634696 29.004763 -7.788956
LeftToeBase 22.893142 -0.000000 -0.000000
RightUpLeg 7.349516 -4.272928 4.546653
RightLeg -4.798570 -0.000000 0.000000
RightFoot -5.018949 -27.939589 4.948646
RightToeBase 13.331224 -0.000000 -0.000000
3131
root -5.216982 35.176709 -9.151223 0.677085 -5.531641 -6.590147
Spine -6.061769 -3.466774 6.818465
Head 10.667822 -7.822529 -5.319662
LeftShoulder -20.664474 12.989128 -13.099000
LeftArm 15.885605 -12.340853 -75.364487
LeftForeArm 16.133512 -0.000000 10.018563
LeftHand 0.227528 0.000000 -4.889165
LeftHandThumb1 -26.253704 0.000000 33.147579
RightShoulder -11.013619 5.820782 -7.540383
RightArm -4.135599 -11.136606 30.073886
RightForeArm 52.818902 -0.000000 91.627244
RightHand 11.856759 -0.000000 0.754433
RightHandThumb1 -24.326973 -0.000000 -32.862282
LeftUpLeg 11.039628 13.988685 6.986046
LeftLeg -9.703751 -0.000000 0.000000
LeftFoot -16.599434 28.966267 -7.737321
LeftToeBase 22.862857 -0.000000 -0.000000
RightUpLeg 7.350322 -4.273152 4.528898
RightLeg -4.801233 -0.000000 0.000000
RightFoot -5.022491 -27.940874 4.939420
RightToeBase 13.378543 -0.000000 -0.000000
3132
root -5.214744 35.176644 -9.153683 0.673199 -5.526878 -6.584581
Spine -6.040634 -3.470860 6.827498
Head 10.616653 -7.836561 -5.319601
LeftShoulder -20.670474 12.987920 -13.101558
LeftArm 15.890079 -12.338750 -75.368798
LeftForeArm 16.157709 -0.000000 10.024971
LeftHand 0.199439 -0.000000 -4.993083
LeftHandThumb1 -26.253704 0.000000 33.147579
RightShoulder -10.993621 5.803206 -7.499616
RightArm -4.030653 -11.211788 30.103963
RightForeArm 52.717818 -0.000000 91.463169
RightHand 11.919900 -0.000000 1.453350
RightHandThumb1 -24.326973 -0.000000 -32.862282
LeftUpLeg 11.028847 14.005570 6.971859
LeftLeg -9.694592 -0.000000 0.000000
LeftFoot -16.633567 28.978517 -7.803235
LeftToeBase 22.871629 -0.000000 -0.000000
RightUpLeg 7.346783 -4.273301 4.522035
RightLeg -4.796711 -0.000000 0.000000
RightFoot -5.027704 -27.952334 4.939787
RightToeBase 13.375451 -0.000000 -0.000000
